<svg width="25" height="25" viewBox="0 0 25 25" fill="none" xmlns="http://www.w3.org/2000/svg">
<path d="M21.3375 3.6625L19.575 5.425C21.375 7.2375 22.5 9.7375 22.5 12.5C22.5 18.025 18.025 22.5 12.5 22.5C6.975 22.5 2.5 18.025 2.5 12.5C2.5 7.4 6.3125 3.2 11.25 2.5875V5.1125C7.7 5.7125 5 8.7875 5 12.5C5 16.6375 8.3625 20 12.5 20C16.6375 20 20 16.6375 20 12.5C20 10.425 19.1625 8.55 17.8 7.2L16.0375 8.9625C16.9375 9.875 17.5 11.125 17.5 12.5C17.5 15.2625 15.2625 17.5 12.5 17.5C9.7375 17.5 7.5 15.2625 7.5 12.5C7.5 10.175 9.1 8.2375 11.25 7.675V10.35C10.5 10.7875 10 11.575 10 12.5C10 13.875 11.125 15 12.5 15C13.875 15 15 13.875 15 12.5C15 11.575 14.5 10.775 13.75 10.35V0H12.5C5.6 0 0 5.6 0 12.5C0 19.4 5.6 25 12.5 25C19.4 25 25 19.4 25 12.5C25 9.05 23.6 5.925 21.3375 3.6625Z" fill="black"/>
</svg>
