<svg width="54" height="54" viewBox="0 0 54 54" fill="none" xmlns="http://www.w3.org/2000/svg">
<circle cx="27" cy="27" r="27" fill="white"/>
<g clip-path="url(#clip0_7873_1400)">
<path d="M32.2812 14.2031H21.7188C21.3418 14.2036 20.9804 14.3535 20.7138 14.6201C20.4473 14.8866 20.2973 15.248 20.2969 15.625V23.75C20.2973 24.127 20.4473 24.4884 20.7138 24.7549C20.9804 25.0215 21.3418 25.1714 21.7188 25.1719H25.4046L26.4549 27.2726C26.5056 27.3736 26.5835 27.4586 26.6798 27.518C26.776 27.5774 26.8869 27.6088 27 27.6088C27.1131 27.6088 27.224 27.5774 27.3202 27.518C27.4165 27.4586 27.4944 27.3736 27.5451 27.2726L28.5954 25.1719H32.2812C32.6582 25.1714 33.0196 25.0215 33.2862 24.7549C33.5527 24.4884 33.7027 24.127 33.7031 23.75V15.625C33.7027 15.248 33.5527 14.8866 33.2862 14.6201C33.0196 14.3535 32.6582 14.2036 32.2812 14.2031ZM30.3504 17.7213L26.3692 21.7029C26.3081 21.764 26.2347 21.8114 26.1539 21.842C26.0731 21.8725 25.9867 21.8856 25.9005 21.8802C25.8142 21.8748 25.7301 21.8512 25.6537 21.8109C25.5773 21.7705 25.5104 21.7144 25.4573 21.6461L23.5994 19.257C23.5002 19.1295 23.4557 18.9677 23.4758 18.8073C23.4958 18.647 23.5788 18.5011 23.7064 18.4019C23.8339 18.3027 23.9957 18.2582 24.1561 18.2783C24.3164 18.2983 24.4623 18.3812 24.5615 18.5088L25.9957 20.3528L29.4887 16.8596C29.603 16.7454 29.7579 16.6812 29.9195 16.6812C30.0811 16.6812 30.2361 16.7454 30.3504 16.8596C30.4646 16.9739 30.5288 17.1289 30.5288 17.2905C30.5288 17.4521 30.4646 17.607 30.3504 17.7213H30.3504Z" fill="#8F68FF"/>
<path d="M25.1339 33.2962C22.3691 32.5178 19.4431 32.5178 16.6784 33.2962C16.6012 33.3177 16.529 33.3543 16.466 33.4038C16.4029 33.4532 16.3503 33.5147 16.311 33.5845C16.2718 33.6544 16.2467 33.7313 16.2372 33.8109C16.2277 33.8904 16.234 33.9711 16.2557 34.0482C16.2775 34.1253 16.3142 34.1974 16.3639 34.2603C16.4135 34.3232 16.4751 34.3757 16.545 34.4148C16.615 34.4539 16.6919 34.4788 16.7715 34.4881C16.8511 34.4974 16.9318 34.4909 17.0088 34.4689C19.5575 33.7516 22.2547 33.7516 24.8034 34.4689C24.8804 34.4909 24.9611 34.4974 25.0407 34.4881C25.1203 34.4788 25.1973 34.4539 25.2672 34.4148C25.3372 34.3757 25.3987 34.3232 25.4484 34.2603C25.498 34.1974 25.5347 34.1253 25.5565 34.0482C25.5782 33.9711 25.5845 33.8904 25.575 33.8109C25.5655 33.7313 25.5405 33.6544 25.5012 33.5845C25.4619 33.5147 25.4093 33.4532 25.3462 33.4038C25.2832 33.3543 25.211 33.3177 25.1339 33.2962Z" fill="black"/>
<path d="M16.6784 29.9109C16.6012 29.9325 16.529 29.969 16.466 30.0185C16.4029 30.068 16.3503 30.1294 16.311 30.1993C16.2718 30.2691 16.2467 30.346 16.2372 30.4256C16.2277 30.5052 16.234 30.5858 16.2557 30.663C16.2775 30.7401 16.3142 30.8122 16.3639 30.8751C16.4135 30.938 16.4751 30.9905 16.545 31.0296C16.615 31.0686 16.6919 31.0935 16.7715 31.1028C16.8511 31.1121 16.9318 31.1056 17.0088 31.0837C19.5575 30.3664 22.2547 30.3664 24.8034 31.0837C24.8804 31.1056 24.9611 31.1121 25.0407 31.1028C25.1203 31.0935 25.1973 31.0686 25.2672 31.0296C25.3372 30.9905 25.3987 30.938 25.4484 30.8751C25.498 30.8122 25.5347 30.7401 25.5565 30.663C25.5782 30.5858 25.5845 30.5052 25.575 30.4256C25.5655 30.346 25.5405 30.2691 25.5012 30.1993C25.4619 30.1294 25.4093 30.068 25.3462 30.0185C25.2832 29.969 25.211 29.9325 25.1339 29.9109C22.3691 29.1326 19.4431 29.1326 16.6784 29.9109Z" fill="black"/>
<path d="M16.2572 27.2762C16.301 27.4318 16.4048 27.5636 16.5457 27.6426C16.6866 27.7217 16.8532 27.7416 17.0088 27.698C18.2771 27.3404 19.5885 27.1585 20.9062 27.1572C21.0679 27.1572 21.2229 27.093 21.3371 26.9787C21.4514 26.8645 21.5156 26.7095 21.5156 26.5479C21.5156 26.3862 21.4514 26.2312 21.3371 26.117C21.2229 26.0027 21.0679 25.9385 20.9062 25.9385C19.4769 25.9397 18.0545 26.1369 16.6787 26.5244C16.6017 26.5461 16.5296 26.5828 16.4668 26.6323C16.4039 26.6818 16.3514 26.7432 16.3122 26.813C16.2731 26.8829 16.2481 26.9597 16.2386 27.0392C16.2292 27.1186 16.2355 27.1992 16.2572 27.2762Z" fill="black"/>
<path d="M17.0089 24.3126C17.5221 24.1683 18.0428 24.0522 18.5687 23.9647C18.6476 23.9516 18.7232 23.9231 18.7911 23.8808C18.859 23.8385 18.9179 23.7832 18.9645 23.7181C19.011 23.653 19.0443 23.5794 19.0624 23.5015C19.0805 23.4236 19.0831 23.3428 19.07 23.2639C19.0568 23.185 19.0283 23.1094 18.986 23.0415C18.9437 22.9736 18.8884 22.9147 18.8234 22.8681C18.7583 22.8216 18.6847 22.7883 18.6067 22.7702C18.5288 22.7521 18.4481 22.7495 18.3691 22.7626C17.7993 22.8572 17.235 22.9829 16.6789 23.1391C16.5232 23.1829 16.3914 23.2867 16.3123 23.4277C16.2332 23.5687 16.2134 23.7353 16.2571 23.8909C16.3009 24.0465 16.4047 24.1784 16.5457 24.2575C16.6867 24.3366 16.8533 24.3564 17.0089 24.3126V24.3126Z" fill="black"/>
<path d="M29.1963 34.4689C31.745 33.7516 34.4422 33.7516 36.9909 34.4689C37.0679 34.4909 37.1486 34.4974 37.2282 34.4881C37.3078 34.4788 37.3848 34.4539 37.4547 34.4148C37.5247 34.3757 37.5862 34.3232 37.6359 34.2603C37.6855 34.1974 37.7222 34.1253 37.744 34.0482C37.7657 33.9711 37.772 33.8904 37.7625 33.8109C37.753 33.7313 37.728 33.6544 37.6887 33.5845C37.6494 33.5147 37.5968 33.4532 37.5337 33.4038C37.4707 33.3543 37.3985 33.3177 37.3213 33.2962C34.5566 32.5178 31.6306 32.5178 28.8659 33.2962C28.7887 33.3177 28.7165 33.3543 28.6535 33.4038C28.5904 33.4532 28.5378 33.5147 28.4985 33.5845C28.4593 33.6544 28.4342 33.7313 28.4247 33.8109C28.4152 33.8904 28.4215 33.9711 28.4432 34.0482C28.465 34.1253 28.5017 34.1974 28.5514 34.2603C28.601 34.3232 28.6626 34.3757 28.7325 34.4148C28.8025 34.4539 28.8794 34.4788 28.959 34.4881C29.0386 34.4974 29.1193 34.4909 29.1963 34.4689Z" fill="black"/>
<path d="M29.1963 31.0837C31.745 30.3664 34.4422 30.3664 36.9909 31.0837C37.0679 31.1056 37.1486 31.1121 37.2282 31.1028C37.3078 31.0935 37.3848 31.0686 37.4547 31.0296C37.5247 30.9905 37.5862 30.938 37.6359 30.8751C37.6855 30.8122 37.7222 30.7401 37.744 30.663C37.7657 30.5858 37.772 30.5052 37.7625 30.4256C37.753 30.346 37.728 30.2691 37.6887 30.1993C37.6494 30.1294 37.5968 30.068 37.5337 30.0185C37.4707 29.969 37.3985 29.9325 37.3213 29.9109C34.5566 29.1326 31.6306 29.1326 28.8659 29.9109C28.7887 29.9325 28.7165 29.969 28.6535 30.0185C28.5904 30.068 28.5378 30.1294 28.4985 30.1993C28.4593 30.2691 28.4342 30.346 28.4247 30.4256C28.4152 30.5052 28.4215 30.5858 28.4432 30.663C28.465 30.7401 28.5017 30.8122 28.5514 30.8751C28.601 30.938 28.6626 30.9905 28.7325 31.0296C28.8025 31.0686 28.8794 31.0935 28.959 31.1028C29.0386 31.1121 29.1193 31.1056 29.1963 31.0837Z" fill="black"/>
<path d="M39.4741 20.3673C38.2729 19.7279 36.9824 19.2728 35.6459 19.0172C35.4871 18.9868 35.3228 19.0207 35.189 19.1115C35.0552 19.2023 34.963 19.3425 34.9326 19.5012C34.9022 19.66 34.9361 19.8244 35.0269 19.9581C35.1176 20.0919 35.2578 20.1841 35.4166 20.2146C36.5136 20.4241 37.5772 20.7815 38.5781 21.277V38.2125C36.8507 37.4478 34.9824 37.0532 33.0933 37.0539C31.2042 37.0547 29.3362 37.4509 27.6094 38.217V32.4493C27.6094 32.2876 27.5452 32.1327 27.4309 32.0184C27.3166 31.9041 27.1616 31.8399 27 31.8399C26.8384 31.8399 26.6834 31.9041 26.5691 32.0184C26.4548 32.1327 26.3906 32.2876 26.3906 32.4493V38.2125C24.6635 37.4474 22.7953 37.0521 20.9062 37.0521C19.0172 37.0521 17.149 37.4474 15.4219 38.2125V21.277C16.4228 20.7815 17.4864 20.4241 18.5834 20.2146C18.7422 20.1841 18.8824 20.0919 18.9731 19.9581C19.0639 19.8244 19.0978 19.66 19.0674 19.5012C19.037 19.3425 18.9448 19.2023 18.811 19.1115C18.6772 19.0207 18.5129 18.9868 18.3541 19.0172C17.0176 19.2728 15.7271 19.7279 14.5259 20.3673C14.4284 20.4193 14.3469 20.4969 14.29 20.5916C14.2332 20.6864 14.2032 20.7948 14.2031 20.9053V39.1865C14.2032 39.2917 14.2305 39.3951 14.2824 39.4866C14.3343 39.5781 14.4089 39.6546 14.4991 39.7087C14.5893 39.7629 14.6919 39.7928 14.797 39.7955C14.9022 39.7983 15.0063 39.7738 15.0991 39.7245C16.8859 38.77 18.8805 38.2707 20.9062 38.2707C22.932 38.2707 24.9266 38.77 26.7134 39.7245C26.8018 39.7708 26.9002 39.795 27 39.795C27.0998 39.795 27.1982 39.7708 27.2866 39.7245C29.0734 38.77 31.068 38.2707 33.0938 38.2707C35.1195 38.2707 37.1141 38.77 38.9009 39.7245C38.9937 39.7739 39.0978 39.7984 39.203 39.7956C39.3081 39.7929 39.4108 39.763 39.501 39.7088C39.5912 39.6547 39.6658 39.5781 39.7177 39.4866C39.7695 39.3951 39.7968 39.2917 39.7969 39.1865V20.9053C39.7968 20.7948 39.7668 20.6864 39.7099 20.5916C39.6531 20.4969 39.5716 20.4193 39.4741 20.3673Z" fill="black"/>
<path d="M33.0937 27.1572C34.4115 27.1585 35.7229 27.3404 36.9912 27.698C37.1468 27.7417 37.3135 27.7219 37.4545 27.6428C37.5954 27.5637 37.6992 27.4319 37.743 27.2762C37.7868 27.1206 37.7669 26.954 37.6879 26.813C37.6088 26.672 37.4769 26.5682 37.3213 26.5244C35.9455 26.1369 34.5231 25.9398 33.0937 25.9385C32.9321 25.9385 32.7771 26.0027 32.6629 26.117C32.5486 26.2312 32.4844 26.3862 32.4844 26.5479C32.4844 26.7095 32.5486 26.8645 32.6629 26.9787C32.7771 27.093 32.9321 27.1572 33.0937 27.1572Z" fill="black"/>
<path d="M36.9911 24.3126C37.1467 24.3564 37.3134 24.3366 37.4543 24.2575C37.5953 24.1784 37.6991 24.0465 37.7429 23.8909C37.7867 23.7353 37.7668 23.5687 37.6877 23.4277C37.6087 23.2867 37.4768 23.1829 37.3212 23.1391C36.765 22.9829 36.2008 22.8572 35.6309 22.7626C35.552 22.7495 35.4713 22.7521 35.3933 22.7702C35.3154 22.7883 35.2418 22.8216 35.1767 22.8681C35.1116 22.9147 35.0563 22.9736 35.014 23.0415C34.9717 23.1094 34.9432 23.185 34.9301 23.2639C34.917 23.3428 34.9196 23.4236 34.9377 23.5015C34.9558 23.5794 34.989 23.653 35.0356 23.7181C35.0821 23.7832 35.141 23.8385 35.209 23.8808C35.2769 23.9231 35.3524 23.9516 35.4314 23.9647C35.9572 24.0522 36.4779 24.1683 36.9911 24.3126Z" fill="black"/>
</g>
<defs>
<clipPath id="clip0_7873_1400">
<rect width="26" height="26" fill="white" transform="translate(14 14)"/>
</clipPath>
</defs>
</svg>
