<svg width="24" height="24" viewBox="0 0 24 24" fill="none" xmlns="http://www.w3.org/2000/svg">
<path d="M3 10.7235V16.2765C3 18.3101 3 18.3101 5 19.6061L10.5 22.6564C11.3256 23.1145 12.6744 23.1145 13.5 22.6564L19 19.6061C21 18.3101 21 18.3101 21 16.2765V10.7235C21 8.68994 21 8.68994 19 7.39385L13.5 4.34358C12.6744 3.88547 11.3256 3.88547 10.5 4.34358L5 7.39385C3 8.68994 3 8.68994 3 10.7235Z" stroke="#727787" stroke-width="1.5" stroke-linecap="round" stroke-linejoin="round"/>
<path d="M18 7V4.19716C18 2.06572 16.9091 1 14.7273 1H9.27273C7.09091 1 6 2.06572 6 4.19716V6.9254" stroke="#727787" stroke-width="1.5" stroke-linecap="round" stroke-linejoin="round"/>
<path d="M12.7749 10.4519L13.4704 11.445C13.5802 11.6012 13.8243 11.7574 14.0073 11.8021L15.252 12.0922C16.0208 12.2707 16.2282 12.8733 15.7279 13.4312L14.9103 14.335C14.7883 14.4801 14.6907 14.7367 14.7029 14.9153L14.7761 16.0869C14.8249 16.8122 14.2636 17.1804 13.5314 16.9126L12.3356 16.4775C12.1525 16.4105 11.8475 16.4105 11.6644 16.4775L10.4686 16.9126C9.73641 17.1804 9.17509 16.801 9.2239 16.0869L9.29712 14.9153C9.30932 14.7367 9.2117 14.4689 9.08967 14.335L8.2721 13.4312C7.77179 12.8733 7.97924 12.2707 8.748 12.0922L9.99267 11.8021C10.1879 11.7574 10.432 11.5901 10.5296 11.445L11.2251 10.4519C11.6644 9.84936 12.3478 9.84936 12.7749 10.4519Z" stroke="#727787" stroke-width="1.5" stroke-linecap="round" stroke-linejoin="round"/>
</svg>
