<svg width="30" height="30" viewBox="0 0 30 30" fill="none" xmlns="http://www.w3.org/2000/svg">
<rect width="30" height="30" rx="4" fill="#7B68EE"/>
<g clip-path="url(#clip0_8127_6773)">
<path d="M22.7665 8.55507H20.175L15.1529 6.77636C15.0513 6.74039 14.9414 6.74125 14.8403 6.77882L10.0639 8.55507H7.23351C6.96648 8.55507 6.75 8.78509 6.75 9.0688V20.6734C6.75 20.9571 6.96648 21.1871 7.23351 21.1871H11.604V22.2225H10.1459C9.8789 22.2225 9.66242 22.4525 9.66242 22.7363C9.66242 23.02 9.8789 23.25 10.1459 23.25H19.8541C20.1211 23.25 20.3376 23.02 20.3376 22.7363C20.3376 22.4525 20.1211 22.2225 19.8541 22.2225H18.396V21.1871H22.7665C23.0335 21.1871 23.25 20.957 23.25 20.6733V9.0688C23.25 8.78505 23.0335 8.55507 22.7665 8.55507ZM12.3284 10.4248C14.9184 11.3901 14.8825 11.3877 15 11.3877C15.1119 11.3877 15.0761 11.3901 17.6716 10.4693V11.8105L15 12.9024L12.3284 11.8105V10.4248ZM15.0038 7.8066L18.5678 9.06884L15.0038 10.3311L11.6096 9.06884L15.0038 7.8066ZM17.4289 22.2225H12.5711V21.1871H17.4289V22.2225H17.4289ZM22.283 20.1596C20.1519 20.1596 10.9365 20.1596 7.71702 20.1596V9.58254H10.0636L11.3614 10.0652V12.1633C11.3614 12.3759 11.4846 12.5665 11.6713 12.6428C14.8978 13.9646 14.8717 13.9665 15 13.9665C15.1283 13.9665 15.1036 13.9676 18.3287 12.6428C18.5154 12.5665 18.6386 12.3759 18.6386 12.1633V10.1268L19.6133 9.78159V12.6791C19.6133 12.9628 19.8298 13.1928 20.0969 13.1928C20.3639 13.1928 20.5804 12.9628 20.5804 12.6791V9.58254H22.283V20.1596Z" fill="white"/>
</g>
<defs>
<clipPath id="clip0_8127_6773">
<rect width="18" height="18" fill="white" transform="translate(6 6)"/>
</clipPath>
</defs>
</svg>
