<svg width="24" height="25" viewBox="0 0 24 25" fill="none" xmlns="http://www.w3.org/2000/svg">
<path d="M22.2825 8.21751L18.5325 4.46751C18.4624 4.398 18.3793 4.34301 18.2879 4.30568C18.1966 4.26836 18.0987 4.24944 18 4.25001H6.00001C5.9013 4.24944 5.80346 4.26836 5.71208 4.30568C5.6207 4.34301 5.53759 4.398 5.46751 4.46751L1.71751 8.21751C1.58673 8.35661 1.51392 8.54034 1.51392 8.73126C1.51392 8.92218 1.58673 9.10592 1.71751 9.24501L11.4675 20.495L11.55 20.57C11.7002 20.7002 11.896 20.7654 12.0943 20.7514C12.2926 20.7373 12.4772 20.6451 12.6075 20.495L22.3575 9.24501C22.4786 9.09657 22.5383 8.90741 22.5243 8.71635C22.5104 8.52529 22.4239 8.3468 22.2825 8.21751ZM9.29251 9.50001H14.7075L12 17.63L9.29251 9.50001ZM19.9425 8.00001H16.26L15.36 5.75001H17.6925L19.9425 8.00001ZM6.30751 5.75001H8.60251L7.73251 8.00001H4.05751L6.30751 5.75001Z" fill="url(#paint0_linear_7873_13929)"/>
<defs>
<linearGradient id="paint0_linear_7873_13929" x1="2.00024" y1="8.5" x2="19.165" y2="8.93052" gradientUnits="userSpaceOnUse">
<stop offset="0.122043" stop-color="#7B38F3"/>
<stop offset="1" stop-color="#F16B68"/>
</linearGradient>
</defs>
</svg>
