<svg width="54" height="54" viewBox="0 0 54 54" fill="none" xmlns="http://www.w3.org/2000/svg">
<circle cx="27" cy="27" r="27" fill="white"/>
<g clip-path="url(#clip0_7873_1450)">
<path d="M34.5156 16.8433H22.3281C22.1665 16.8433 22.0115 16.9075 21.8972 17.0218C21.783 17.136 21.7188 17.291 21.7188 17.4526V29.6401C21.7188 29.8018 21.783 29.9567 21.8972 30.071C22.0115 30.1853 22.1665 30.2495 22.3281 30.2495H34.5156C34.6772 30.2495 34.8322 30.1853 34.9465 30.071C35.0608 29.9567 35.125 29.8018 35.125 29.6401V17.4526C35.125 17.291 35.0608 17.136 34.9465 17.0218C34.8322 16.9075 34.6772 16.8433 34.5156 16.8433ZM32.8906 27.812H23.9531C23.7915 27.812 23.6365 27.7478 23.5222 27.6335C23.408 27.5193 23.3438 27.3643 23.3438 27.2026C23.3438 27.041 23.408 26.886 23.5222 26.7717C23.6365 26.6575 23.7915 26.5933 23.9531 26.5933H32.8906C33.0522 26.5933 33.2072 26.6575 33.3215 26.7717C33.4358 26.886 33.5 27.041 33.5 27.2026C33.5 27.3643 33.4358 27.5193 33.3215 27.6335C33.2072 27.7478 33.0522 27.812 32.8906 27.812ZM33.5 23.5464C33.5 23.708 33.4358 23.863 33.3215 23.9773C33.2072 24.0915 33.0522 24.1558 32.8906 24.1558H23.9531C23.7915 24.1558 23.6365 24.0915 23.5222 23.9773C23.408 23.863 23.3438 23.708 23.3438 23.5464V19.8901C23.3438 19.7285 23.408 19.5735 23.5222 19.4593C23.6365 19.345 23.7915 19.2808 23.9531 19.2808H32.8906C33.0522 19.2808 33.2072 19.345 33.3215 19.4593C33.4358 19.5735 33.5 19.7285 33.5 19.8901V23.5464Z" fill="#D6BE40"/>
<path d="M24.5625 20.4995H32.2812V22.937H24.5625V20.4995Z" fill="#D6BE40"/>
<path d="M35.7344 14.2026H18.2656C17.3501 14.2037 16.4724 14.5678 15.8251 15.2152C15.1777 15.8626 14.8136 16.7403 14.8125 17.6558V35.1245C14.8139 35.934 15.0993 36.7173 15.6189 37.3379C16.1386 37.9585 16.8596 38.377 17.6562 38.5205V39.187C17.6565 39.3044 17.6905 39.4192 17.7544 39.5177C17.8182 39.6161 17.9091 39.6941 18.0162 39.7422C18.1233 39.7903 18.2419 39.8064 18.3579 39.7887C18.474 39.7711 18.5824 39.7203 18.6703 39.6425L20.0938 38.3773L21.5172 39.6425C21.6051 39.7203 21.7135 39.7711 21.8296 39.7888C21.9456 39.8064 22.0642 39.7903 22.1713 39.7422C22.2784 39.6941 22.3693 39.6161 22.4331 39.5177C22.497 39.4192 22.531 39.3044 22.5312 39.187V38.5776H35.7344C36.6499 38.5766 37.5276 38.2124 38.1749 37.5651C38.8223 36.9177 39.1864 36.04 39.1875 35.1245V17.6558C39.1864 16.7403 38.8223 15.8626 38.1749 15.2152C37.5276 14.5678 36.6499 14.2037 35.7344 14.2026ZM16.0312 17.6558C16.0321 17.1699 16.1911 16.6974 16.4843 16.3099C16.7775 15.9224 17.1889 15.6409 17.6562 15.508V31.7285C17.0561 31.836 16.4953 32.101 16.0312 32.4965V17.6558ZM21.3125 37.83L20.4984 37.1066C20.3869 37.0075 20.2429 36.9527 20.0938 36.9527C19.9446 36.9527 19.8006 37.0075 19.6891 37.1066L18.875 37.83V35.7339H21.3125V37.83ZM37.9688 35.1245C37.968 35.7169 37.7324 36.2848 37.3135 36.7037C36.8947 37.1226 36.3268 37.3582 35.7344 37.3589H22.5312V35.7339H35.7344C36.5537 35.7341 37.3462 35.4414 37.9688 34.9088V35.1245ZM37.9688 32.2808C37.968 32.8731 37.7324 33.4411 37.3135 33.8599C36.8947 34.2788 36.3268 34.5144 35.7344 34.5151H18.2656C18.104 34.5151 17.949 34.5793 17.8347 34.6936C17.7205 34.8079 17.6563 34.9629 17.6562 35.1245V37.2722C17.1374 37.1254 16.6893 36.7958 16.3945 36.3443C16.0997 35.8928 15.9783 35.3499 16.0525 34.8158C16.1268 34.2817 16.3918 33.7926 16.7986 33.4386C17.2053 33.0847 17.7264 32.8899 18.2656 32.8901H35.7344C36.5537 32.8903 37.3462 32.5977 37.9688 32.065V32.2808ZM37.9688 29.437C37.968 30.0294 37.7324 30.5973 37.3135 31.0162C36.8947 31.4351 36.3268 31.6707 35.7344 31.6714H18.875V15.4214H35.7344C36.3268 15.4221 36.8947 15.6577 37.3135 16.0766C37.7324 16.4955 37.968 17.0634 37.9688 17.6558V29.437Z" fill="#111111"/>
</g>
<defs>
<clipPath id="clip0_7873_1450">
<rect width="26" height="26" fill="white" transform="translate(14 14)"/>
</clipPath>
</defs>
</svg>
