<svg width="24" height="24" viewBox="0 0 24 24" fill="none" xmlns="http://www.w3.org/2000/svg">
<path d="M20.6468 18.3863L15.9744 9.30607V2.28906H16.6097C16.9675 2.28906 17.2576 2.00048 17.2576 1.64453C17.2576 1.28858 16.9675 1 16.6097 1H8.39028C8.03246 1 7.74237 1.28858 7.74237 1.64453C7.74237 2.00048 8.03246 2.28906 8.39028 2.28906H9.02554V9.30607L4.35319 18.3864C3.84354 19.3768 3.88768 20.5348 4.47119 21.4841C5.0547 22.4333 6.0708 23 7.18931 23H17.8107C18.9292 23 19.9453 22.4333 20.5288 21.4841C21.1123 20.5348 21.1564 19.3768 20.6468 18.3863ZM10.2502 9.75514C10.297 9.66422 10.3214 9.56359 10.3214 9.46145V2.28906H14.6786V9.46145C14.6786 9.56354 14.7029 9.66422 14.7497 9.75514L16.5526 13.2588H8.44739L10.2502 9.75514ZM17.8107 21.7109H7.18931C6.52576 21.7109 5.9229 21.3747 5.5767 20.8116C5.38194 20.4948 5.28847 20.1388 5.29776 19.7834C5.30294 19.5859 5.33983 19.3886 5.40868 19.1983C5.43624 19.1222 7.78405 14.5478 7.78405 14.5478H17.2159C17.2159 14.5478 19.5298 19.0475 19.5462 19.085C19.6442 19.3097 19.6961 19.5464 19.7022 19.7834C19.7115 20.1388 19.618 20.4948 19.4233 20.8116C19.0771 21.3747 18.4743 21.7109 17.8107 21.7109Z" fill="#7B68EE"/>
</svg>
