<svg width="22" height="26" viewBox="0 0 22 26" fill="none" xmlns="http://www.w3.org/2000/svg">
<path d="M14.9844 5.6875C14.9844 7.888 13.2005 9.67188 11 9.67188C8.7995 9.67188 7.01562 7.888 7.01562 5.6875C7.01562 3.487 8.7995 1.70313 11 1.70313C13.2005 1.70313 14.9844 3.487 14.9844 5.6875Z" stroke="#727787" stroke-width="1.5" stroke-miterlimit="10" stroke-linecap="round" stroke-linejoin="round"/>
<path d="M18.7344 18.1094H18.0312C17.7724 18.1094 17.5625 17.8995 17.5625 17.6406V15.2969C17.5625 15.038 17.7724 14.8281 18.0312 14.8281H18.7344C19.6405 14.8281 20.375 15.5627 20.375 16.4688C20.375 17.3748 19.6405 18.1094 18.7344 18.1094Z" stroke="#727787" stroke-width="1.5" stroke-miterlimit="10" stroke-linecap="round" stroke-linejoin="round"/>
<path d="M3.26562 18.1094H3.96875C4.22759 18.1094 4.4375 17.8995 4.4375 17.6406V15.2969C4.4375 15.038 4.22759 14.8281 3.96875 14.8281H3.26562C2.35953 14.8281 1.625 15.5627 1.625 16.4688C1.625 17.3748 2.35953 18.1094 3.26562 18.1094Z" stroke="#727787" stroke-width="1.5" stroke-miterlimit="10" stroke-linecap="round" stroke-linejoin="round"/>
<path d="M16.7119 12.3115C15.3362 10.6966 13.2881 9.67204 11.0005 9.67204C8.71281 9.67204 6.6647 10.6966 5.28906 12.3115" stroke="#727787" stroke-width="1.5" stroke-miterlimit="10" stroke-linecap="round" stroke-linejoin="round"/>
<path d="M18.5 14.8281V11.6406L11 14.4531V24.2969L18.5 21.4844V18.1094" stroke="#727787" stroke-width="1.5" stroke-miterlimit="10" stroke-linecap="round" stroke-linejoin="round"/>
<path d="M3.5 18.1094V21.4844L11 24.2969V14.4531L3.5 11.6406V14.8281" stroke="#727787" stroke-width="1.5" stroke-miterlimit="10" stroke-linecap="round" stroke-linejoin="round"/>
</svg>
