<svg width="56" height="64" viewBox="0 0 56 64" fill="none" xmlns="http://www.w3.org/2000/svg">
<path d="M48.6079 24.702H40.8312V21.4143C40.8312 13.8944 34.7133 7.77663 27.1936 7.77663C19.6737 7.77663 13.5559 13.8944 13.5559 21.4143V24.702H5.7793V21.4143C5.7793 9.6064 15.3857 0 27.1936 0C39.0013 0 48.6079 9.6064 48.6079 21.4143V24.702Z" fill="url(#paint0_linear_8127_6471)"/>
<path d="M27.1938 4.21045C17.3987 4.21045 9.42969 12.1795 9.42969 21.9746V24.702H13.5562V21.4143C13.5562 13.8944 19.674 7.77663 27.1938 7.77663C34.7136 7.77663 40.8315 13.8944 40.8315 21.4143V24.702H44.958V21.9745C44.958 12.1793 36.989 4.21045 27.1938 4.21045Z" fill="url(#paint1_linear_8127_6471)"/>
<path d="M3.49762 38.4225H2.13881C1.15384 38.4225 0.355469 37.6241 0.355469 36.6392V35.1735C0.355469 34.1885 1.15396 33.3901 2.13881 33.3901H3.49762C4.48259 33.3901 5.28096 34.1886 5.28096 35.1735V36.6392C5.28096 37.6241 4.48246 38.4225 3.49762 38.4225Z" fill="url(#paint2_linear_8127_6471)"/>
<path d="M3.49762 43.4548H2.13881C1.15384 43.4548 0.355469 42.6563 0.355469 41.6714V40.2057C0.355469 39.2207 1.15396 38.4224 2.13881 38.4224H3.49762C4.48259 38.4224 5.28096 39.2209 5.28096 40.2057V41.6714C5.28096 42.6564 4.48246 43.4548 3.49762 43.4548Z" fill="url(#paint3_linear_8127_6471)"/>
<path d="M3.49762 48.4875H2.13881C1.15384 48.4875 0.355469 47.689 0.355469 46.7041V45.2384C0.355469 44.2534 1.15396 43.4551 2.13881 43.4551H3.49762C4.48259 43.4551 5.28096 44.2536 5.28096 45.2384V46.7041C5.28096 47.689 4.48246 48.4875 3.49762 48.4875Z" fill="url(#paint4_linear_8127_6471)"/>
<path d="M3.49762 53.5202H2.13881C1.15384 53.5202 0.355469 52.7217 0.355469 51.7369V50.2711C0.355469 49.2862 1.15396 48.4878 2.13881 48.4878H3.49762C4.48259 48.4878 5.28096 49.2863 5.28096 50.2711V51.7369C5.28096 52.7217 4.48246 53.5202 3.49762 53.5202Z" fill="url(#paint5_linear_8127_6471)"/>
<path d="M53.8609 38.4225H52.5021C51.5171 38.4225 50.7188 37.6241 50.7188 36.6392V35.1735C50.7188 34.1885 51.5172 33.3901 52.5021 33.3901H53.8609C54.8459 33.3901 55.6442 34.1886 55.6442 35.1735V36.6392C55.6444 37.6241 54.8459 38.4225 53.8609 38.4225Z" fill="url(#paint6_linear_8127_6471)"/>
<path d="M53.8609 43.4548H52.5021C51.5171 43.4548 50.7188 42.6563 50.7188 41.6714V40.2057C50.7188 39.2207 51.5172 38.4224 52.5021 38.4224H53.8609C54.8459 38.4224 55.6442 39.2209 55.6442 40.2057V41.6714C55.6444 42.6564 54.8459 43.4548 53.8609 43.4548Z" fill="url(#paint7_linear_8127_6471)"/>
<path d="M53.8609 48.4875H52.5021C51.5171 48.4875 50.7188 47.689 50.7188 46.7041V45.2384C50.7188 44.2534 51.5172 43.4551 52.5021 43.4551H53.8609C54.8459 43.4551 55.6442 44.2536 55.6442 45.2384V46.7041C55.6444 47.689 54.8459 48.4875 53.8609 48.4875Z" fill="url(#paint8_linear_8127_6471)"/>
<path d="M53.8609 53.5202H52.5021C51.5171 53.5202 50.7188 52.7217 50.7188 51.7369V50.2711C50.7188 49.2862 51.5172 48.4878 52.5021 48.4878H53.8609C54.8459 48.4878 55.6442 49.2863 55.6442 50.2711V51.7369C55.6444 52.7217 54.8459 53.5202 53.8609 53.5202Z" fill="url(#paint9_linear_8127_6471)"/>
<path d="M47.7456 64.0002H8.25435C5.25212 64.0002 2.81836 61.5664 2.81836 58.5642V28.3461C2.81836 25.3439 5.25212 22.9102 8.25435 22.9102H47.7456C50.7478 22.9102 53.1816 25.3439 53.1816 28.3461V58.5642C53.1816 61.5663 50.7478 64.0002 47.7456 64.0002Z" fill="url(#paint10_linear_8127_6471)"/>
<path d="M2.81836 50.3369V58.5643C2.81836 61.5665 5.25212 64.0003 8.25435 64.0003H47.7456C50.7478 64.0003 53.1816 61.5665 53.1816 58.5643V50.3369H2.81836Z" fill="url(#paint11_linear_8127_6471)"/>
<path d="M53.1823 38.0703V58.5642C53.1823 61.567 50.7489 64.0004 47.746 64.0004H37.331L18.0917 44.7624C16.9605 43.6312 17.076 42.0289 18.2071 40.8966C19.3383 39.7655 21.0571 39.7655 22.1883 40.8966L27.5986 46.3069C27.7367 46.4451 27.893 46.4744 28.0005 46.4744C28.1081 46.4744 28.4965 46.2129 28.6346 46.0759L40.1933 34.5183L42.7489 31.9616C43.8801 30.8304 45.7145 30.5983 46.8456 31.7295L53.1823 38.0703Z" fill="url(#paint12_linear_8127_6471)"/>
<path d="M53.1824 47.5068V58.5639C53.1824 61.5667 50.749 64.0001 47.7462 64.0001H27.4154L17.7261 54.3109C14.8489 51.5865 13.2852 47.7309 13.2852 43.4553C13.2852 35.3094 19.8548 28.7397 28.0008 28.7397C32.2763 28.7397 36.1319 30.3035 38.8563 33.1807L53.1824 47.5068Z" fill="url(#paint13_linear_8127_6471)"/>
<path d="M28.0001 58.4026C36.2553 58.4026 42.9475 51.7104 42.9475 43.4552C42.9475 35.2 36.2553 28.5078 28.0001 28.5078C19.7449 28.5078 13.0527 35.2 13.0527 43.4552C13.0527 51.7104 19.7449 58.4026 28.0001 58.4026Z" fill="url(#paint14_linear_8127_6471)"/>
<path d="M40.0709 34.6387L28.6344 46.0752C28.4968 46.2128 28.1079 46.4737 28.0005 46.4737C27.8931 46.4737 27.7362 46.4448 27.5986 46.3071L22.1883 40.897C21.057 39.7658 19.3388 39.7658 18.2075 40.897C17.0762 42.0283 16.9603 43.6305 18.0915 44.7618L31.3544 58.0247C37.9947 56.5023 42.9479 50.5574 42.9479 43.4552C42.9479 40.1579 41.8794 37.1105 40.0709 34.6387Z" fill="url(#paint15_linear_8127_6471)"/>
<path d="M27.9995 52.0354C26.3001 52.0354 24.7024 51.3736 23.5008 50.1719L18.0907 44.7618C16.9594 43.6305 16.9594 41.7963 18.0907 40.6651C19.2218 39.534 21.056 39.534 22.1873 40.6651L27.5975 46.0753C27.7352 46.2129 27.8922 46.2418 27.9995 46.2418C28.1069 46.2418 28.2638 46.2129 28.4014 46.0753L42.7475 31.7292C43.8788 30.5981 45.7129 30.5981 46.8441 31.7292C47.9754 32.8605 47.9754 34.6947 46.8441 35.8259L32.4981 50.1719C31.2966 51.3736 29.6989 52.0354 27.9995 52.0354Z" fill="url(#paint16_linear_8127_6471)"/>
<path d="M8.38638 29.921H7.10261C6.36636 29.921 5.76953 29.3242 5.76953 28.5879V27.3043C5.76953 26.568 6.36636 25.9712 7.10261 25.9712H8.38625C9.1225 25.9712 9.71933 26.568 9.71933 27.3043V28.5879C9.71933 29.3242 9.1225 29.921 8.38638 29.921Z" fill="url(#paint17_linear_8127_6471)"/>
<path d="M13.4214 29.921H12.1378C11.4015 29.921 10.8047 29.3242 10.8047 28.5879V27.3043C10.8047 26.568 11.4015 25.9712 12.1378 25.9712H13.4214C14.1577 25.9712 14.7545 26.568 14.7545 27.3043V28.5879C14.7545 29.3242 14.1577 29.921 13.4214 29.921Z" fill="url(#paint18_linear_8127_6471)"/>
<path d="M18.4585 29.921H17.1749C16.4386 29.921 15.8418 29.3242 15.8418 28.5879V27.3043C15.8418 26.568 16.4386 25.9712 17.1749 25.9712H18.4585C19.1948 25.9712 19.7916 26.568 19.7916 27.3043V28.5879C19.7916 29.3242 19.1948 29.921 18.4585 29.921Z" fill="url(#paint19_linear_8127_6471)"/>
<defs>
<linearGradient id="paint0_linear_8127_6471" x1="14.9066" y1="6.34315" x2="34.9432" y2="26.3799" gradientUnits="userSpaceOnUse">
<stop stop-color="#EDF5FF"/>
<stop offset="1" stop-color="#B5DBFF"/>
</linearGradient>
<linearGradient id="paint1_linear_8127_6471" x1="27.1938" y1="20.7547" x2="27.1938" y2="-27.2885" gradientUnits="userSpaceOnUse">
<stop stop-color="#B5DBFF" stop-opacity="0"/>
<stop offset="0.2428" stop-color="#93CEF6" stop-opacity="0.243"/>
<stop offset="0.5763" stop-color="#6ABFEC" stop-opacity="0.576"/>
<stop offset="0.8403" stop-color="#51B5E5" stop-opacity="0.84"/>
<stop offset="1" stop-color="#48B2E3"/>
</linearGradient>
<linearGradient id="paint2_linear_8127_6471" x1="2.27409" y1="35.4917" x2="4.51145" y2="37.1964" gradientUnits="userSpaceOnUse">
<stop stop-color="#EDF5FF"/>
<stop offset="1" stop-color="#B5DBFF"/>
</linearGradient>
<linearGradient id="paint3_linear_8127_6471" x1="2.27409" y1="40.5241" x2="4.51145" y2="42.2286" gradientUnits="userSpaceOnUse">
<stop stop-color="#EDF5FF"/>
<stop offset="1" stop-color="#B5DBFF"/>
</linearGradient>
<linearGradient id="paint4_linear_8127_6471" x1="2.27409" y1="45.5567" x2="4.51145" y2="47.2613" gradientUnits="userSpaceOnUse">
<stop stop-color="#EDF5FF"/>
<stop offset="1" stop-color="#B5DBFF"/>
</linearGradient>
<linearGradient id="paint5_linear_8127_6471" x1="2.27409" y1="50.5894" x2="4.51145" y2="52.294" gradientUnits="userSpaceOnUse">
<stop stop-color="#EDF5FF"/>
<stop offset="1" stop-color="#B5DBFF"/>
</linearGradient>
<linearGradient id="paint6_linear_8127_6471" x1="52.6375" y1="35.4917" x2="54.8747" y2="37.1964" gradientUnits="userSpaceOnUse">
<stop stop-color="#EDF5FF"/>
<stop offset="1" stop-color="#B5DBFF"/>
</linearGradient>
<linearGradient id="paint7_linear_8127_6471" x1="52.6375" y1="40.5241" x2="54.8747" y2="42.2286" gradientUnits="userSpaceOnUse">
<stop stop-color="#EDF5FF"/>
<stop offset="1" stop-color="#B5DBFF"/>
</linearGradient>
<linearGradient id="paint8_linear_8127_6471" x1="52.6375" y1="45.5567" x2="54.8747" y2="47.2613" gradientUnits="userSpaceOnUse">
<stop stop-color="#EDF5FF"/>
<stop offset="1" stop-color="#B5DBFF"/>
</linearGradient>
<linearGradient id="paint9_linear_8127_6471" x1="52.6375" y1="50.5894" x2="54.8747" y2="52.294" gradientUnits="userSpaceOnUse">
<stop stop-color="#EDF5FF"/>
<stop offset="1" stop-color="#B5DBFF"/>
</linearGradient>
<linearGradient id="paint10_linear_8127_6471" x1="14.687" y1="30.142" x2="37.0073" y2="52.4624" gradientUnits="userSpaceOnUse">
<stop stop-color="#FFDA2D"/>
<stop offset="1" stop-color="#FDBF00"/>
</linearGradient>
<linearGradient id="paint11_linear_8127_6471" x1="28" y1="57.525" x2="28" y2="64.2476" gradientUnits="userSpaceOnUse">
<stop stop-color="#FF9100" stop-opacity="0"/>
<stop offset="1" stop-color="#FF9100"/>
</linearGradient>
<linearGradient id="paint12_linear_8127_6471" x1="51.1469" y1="54.7321" x2="36.9519" y2="43.9476" gradientUnits="userSpaceOnUse">
<stop stop-color="#FF9100" stop-opacity="0"/>
<stop offset="1" stop-color="#FF9100"/>
</linearGradient>
<linearGradient id="paint13_linear_8127_6471" x1="48.369" y1="63.8234" x2="25.7274" y2="41.1818" gradientUnits="userSpaceOnUse">
<stop stop-color="#FF9100" stop-opacity="0"/>
<stop offset="1" stop-color="#FF9100"/>
</linearGradient>
<linearGradient id="paint14_linear_8127_6471" x1="21.0478" y1="36.5029" x2="35.4551" y2="50.9102" gradientUnits="userSpaceOnUse">
<stop stop-color="#B9DD39"/>
<stop offset="1" stop-color="#90CC1C"/>
</linearGradient>
<linearGradient id="paint15_linear_8127_6471" x1="41.5868" y1="52.2058" x2="36.2294" y2="46.8484" gradientUnits="userSpaceOnUse">
<stop stop-color="#66BB00" stop-opacity="0"/>
<stop offset="1" stop-color="#66BB00"/>
</linearGradient>
<linearGradient id="paint16_linear_8127_6471" x1="26.684" y1="32.4621" x2="41.606" y2="47.3841" gradientUnits="userSpaceOnUse">
<stop stop-color="#0B799D"/>
<stop offset="1" stop-color="#07485E"/>
</linearGradient>
<linearGradient id="paint17_linear_8127_6471" x1="7.30566" y1="27.6117" x2="9.1102" y2="28.9866" gradientUnits="userSpaceOnUse">
<stop stop-color="#76E2F8"/>
<stop offset="1" stop-color="#48B2E3"/>
</linearGradient>
<linearGradient id="paint18_linear_8127_6471" x1="12.3408" y1="27.6117" x2="14.1454" y2="28.9866" gradientUnits="userSpaceOnUse">
<stop stop-color="#76E2F8"/>
<stop offset="1" stop-color="#48B2E3"/>
</linearGradient>
<linearGradient id="paint19_linear_8127_6471" x1="17.3778" y1="27.6117" x2="19.1825" y2="28.9866" gradientUnits="userSpaceOnUse">
<stop stop-color="#76E2F8"/>
<stop offset="1" stop-color="#48B2E3"/>
</linearGradient>
</defs>
</svg>
