<svg width="54" height="54" viewBox="0 0 54 54" fill="none" xmlns="http://www.w3.org/2000/svg">
<circle cx="27" cy="27" r="27" fill="white"/>
<g clip-path="url(#clip0_7873_1464)">
<path d="M39.1875 21.6962H37.3431V17.6012C37.3421 16.6814 36.9762 15.7996 36.3258 15.1491C35.6754 14.4987 34.7936 14.1329 33.8738 14.1318H20.1263C19.2065 14.1329 18.3246 14.4987 17.6742 15.1491C17.0238 15.7996 16.658 16.6814 16.6569 17.6012V21.6962H14.8125C14.6509 21.6962 14.4959 21.7605 14.3816 21.8747C14.2673 21.989 14.2031 22.144 14.2031 22.3056V28.57C14.2024 29.452 14.3893 30.3241 14.7514 31.1284C15.1135 31.9328 15.6425 32.6508 16.3034 33.235V38.1563C16.3039 38.6101 16.4844 39.0451 16.8053 39.3659C17.1261 39.6868 17.5611 39.8673 18.0149 39.8678H35.9851C36.4389 39.8673 36.8739 39.6868 37.1947 39.3659C37.5156 39.0451 37.6961 38.6101 37.6966 38.1563V33.2352C38.3574 32.6509 38.8864 31.9328 39.2485 31.1285C39.6106 30.3242 39.7975 29.452 39.7969 28.57V22.3056C39.7969 22.144 39.7327 21.989 39.6184 21.8747C39.5041 21.7605 39.3491 21.6962 39.1875 21.6962ZM17.8756 17.6012C17.8763 17.0045 18.1137 16.4325 18.5356 16.0105C18.9575 15.5886 19.5296 15.3513 20.1263 15.3506H33.8737C34.4704 15.3513 35.0425 15.5886 35.4644 16.0105C35.8863 16.4325 36.1237 17.0045 36.1243 17.6012V21.6962H34.9056V17.6012C34.9053 17.3276 34.7964 17.0654 34.603 16.8719C34.4095 16.6785 34.1473 16.5697 33.8737 16.5693H20.1263C19.8527 16.5697 19.5905 16.6785 19.397 16.8719C19.2036 17.0654 19.0947 17.3276 19.0944 17.6012V21.6962H17.8757L17.8756 17.6012ZM36.4778 38.1563C36.4777 38.287 36.4257 38.4122 36.3334 38.5046C36.241 38.597 36.1157 38.6489 35.9851 38.649H18.0149C17.8843 38.6489 17.759 38.597 17.6666 38.5046C17.5742 38.4122 17.5223 38.287 17.5222 38.1563V34.0927C18.4283 34.5776 19.4398 34.8322 20.4675 34.8343H22.5527V35.6886C22.5527 35.8503 22.6169 36.0052 22.7312 36.1195C22.8454 36.2338 23.0004 36.298 23.162 36.298H30.838C30.9996 36.298 31.1546 36.2338 31.2688 36.1195C31.3831 36.0052 31.4473 35.8503 31.4473 35.6886V34.8343H33.5325C34.5602 34.8322 35.5716 34.5776 36.4778 34.0929L36.4778 38.1563ZM23.7714 35.0793V33.1863H30.2286V35.0793H23.7714ZM38.5781 28.57C38.5772 29.9079 38.0454 31.1907 37.0993 32.1368C36.1533 33.0828 34.8704 33.6147 33.5325 33.6155H31.4473V32.5769C31.4473 32.4153 31.3831 32.2603 31.2688 32.146C31.1546 32.0318 30.9996 31.9675 30.838 31.9675H23.162C23.0004 31.9675 22.8454 32.0318 22.7312 32.146C22.6169 32.2603 22.5527 32.4153 22.5527 32.5769V33.6155H20.4675C19.1295 33.6148 17.8466 33.0829 16.9005 32.1369C15.9545 31.1908 15.4226 29.9079 15.4219 28.57V22.915H21.5561C21.7177 22.915 21.8727 22.8508 21.987 22.7365C22.1013 22.6222 22.1655 22.4672 22.1655 22.3056C22.1655 22.144 22.1013 21.989 21.987 21.8747C21.8727 21.7604 21.7177 21.6962 21.5561 21.6962H20.3131V17.7881H33.6869V21.6963H32.4439C32.2823 21.6963 32.1273 21.7605 32.013 21.8747C31.8987 21.989 31.8345 22.144 31.8345 22.3056C31.8345 22.4673 31.8987 22.6222 32.013 22.7365C32.1273 22.8508 32.2823 22.915 32.4439 22.915H38.5781V28.57Z" fill="black"/>
<circle cx="26.5" cy="24.5" r="4.5" fill="#4AAB1C"/>
<path fill-rule="evenodd" clip-rule="evenodd" d="M27 21.4286C25.0276 21.4286 23.4286 23.0276 23.4286 25C23.4286 26.9724 25.0276 28.5714 27 28.5714C28.9724 28.5714 30.5714 26.9724 30.5714 25C30.5714 23.0276 28.9724 21.4286 27 21.4286ZM22 25C22 22.2386 24.2386 20 27 20C29.7614 20 32 22.2386 32 25C32 27.7614 29.7614 30 27 30C24.2386 30 22 27.7614 22 25Z" fill="#4AAB1C"/>
<path fill-rule="evenodd" clip-rule="evenodd" d="M27.0004 22.8574C27.3949 22.8574 27.7147 23.1772 27.7147 23.5717V24.7044L28.2198 25.2095C28.4987 25.4884 28.4987 25.9407 28.2198 26.2196C27.9408 26.4986 27.4886 26.4986 27.2096 26.2196L26.4953 25.5054C26.3614 25.3714 26.2861 25.1897 26.2861 25.0003V23.5717C26.2861 23.1772 26.6059 22.8574 27.0004 22.8574Z" fill="white"/>
</g>
<defs>
<clipPath id="clip0_7873_1464">
<rect width="26" height="26" fill="white" transform="translate(14 14)"/>
</clipPath>
</defs>
</svg>
