<svg width="24" height="24" viewBox="0 0 24 24" fill="none" xmlns="http://www.w3.org/2000/svg">
<path d="M22.3553 3.40676H18.9L12.2038 1.03514C12.0684 0.987193 11.9218 0.988334 11.787 1.03843L5.41852 3.40676H1.64468C1.28865 3.40676 1 3.71345 1 4.09174V19.5645C1 19.9428 1.28865 20.2494 1.64468 20.2494H7.47205V21.63H5.5279C5.17187 21.63 4.88322 21.9367 4.88322 22.315C4.88322 22.6933 5.17187 23 5.5279 23H18.4721C18.8281 23 19.1168 22.6933 19.1168 22.315C19.1168 21.9367 18.8281 21.63 18.4721 21.63H16.5279V20.2494H22.3553C22.7114 20.2494 23 19.9427 23 19.5644V4.09174C23 3.7134 22.7114 3.40676 22.3553 3.40676V3.40676ZM8.43792 5.89967C11.8912 7.18683 11.8433 7.18359 12 7.18359C12.1493 7.18359 12.1015 7.18683 15.5621 5.95908V7.74733L12 9.20313L8.43792 7.74733V5.89967ZM12.0051 2.4088L16.757 4.09179L12.0051 5.77477L7.4794 4.09179L12.0051 2.4088ZM15.2385 21.63H8.76142V20.2494H15.2386V21.63H15.2385ZM21.7106 18.8794C18.8693 18.8794 6.58196 18.8794 2.28936 18.8794V4.77672H5.41809L7.14855 5.42023V8.21777C7.14855 8.50117 7.31282 8.75534 7.56179 8.85708C11.8638 10.6195 11.8289 10.622 12 10.622C12.171 10.622 12.1381 10.6234 16.4382 8.85708C16.6872 8.75534 16.8514 8.50117 16.8514 8.21777V5.50243L18.1511 5.04212V8.90549C18.1511 9.28378 18.4398 9.59047 18.7958 9.59047C19.1518 9.59047 19.4405 9.28378 19.4405 8.90549V4.77672H21.7106V18.8794Z" fill="#009D71"/>
</svg>
