<svg width="24" height="24" viewBox="0 0 24 24" fill="none" xmlns="http://www.w3.org/2000/svg">
<path d="M12 22C17.5228 22 22 17.5228 22 12C22 6.47715 17.5228 2 12 2C6.47715 2 2 6.47715 2 12C2 17.5228 6.47715 22 12 22Z" stroke="#727787" stroke-width="1.5" stroke-linecap="round" stroke-linejoin="round"/>
<mask id="path-2-inside-1_7873_22736" fill="white">
<path d="M12.4826 17.2399C12.2906 17.2399 12.1626 17.1759 12.0346 17.0479L8.19459 13.208C8.00259 13.016 7.93859 12.76 8.06659 12.504C8.13059 12.248 8.38659 12.12 8.64259 12.12H10.5626C11.0746 12.12 11.5866 11.928 11.9066 11.544C12.2906 11.224 12.4826 10.712 12.4826 10.2C12.4826 9.68798 12.2906 9.17598 11.9066 8.85599C11.5866 8.47199 11.0746 8.27999 10.5626 8.27999H8.64259C8.25859 8.27999 8.00259 8.02399 8.00259 7.64C8.00259 7.256 8.25859 7 8.64259 7H15.6825C16.0665 7 16.3225 7.256 16.3225 7.64C16.3225 8.02399 16.0665 8.27999 15.6825 8.27999H13.1226C13.5066 8.85599 13.7626 9.49598 13.7626 10.2C13.7626 11.032 13.4426 11.864 12.8026 12.44C12.2266 13.08 11.3946 13.4 10.5626 13.4H10.1786L12.9306 16.1519C13.1866 16.4079 13.1866 16.7919 12.9306 17.0479C12.8026 17.1759 12.6746 17.2399 12.4826 17.2399Z"/>
</mask>
<path d="M12.4826 17.2399C12.2906 17.2399 12.1626 17.1759 12.0346 17.0479L8.19459 13.208C8.00259 13.016 7.93859 12.76 8.06659 12.504C8.13059 12.248 8.38659 12.12 8.64259 12.12H10.5626C11.0746 12.12 11.5866 11.928 11.9066 11.544C12.2906 11.224 12.4826 10.712 12.4826 10.2C12.4826 9.68798 12.2906 9.17598 11.9066 8.85599C11.5866 8.47199 11.0746 8.27999 10.5626 8.27999H8.64259C8.25859 8.27999 8.00259 8.02399 8.00259 7.64C8.00259 7.256 8.25859 7 8.64259 7H15.6825C16.0665 7 16.3225 7.256 16.3225 7.64C16.3225 8.02399 16.0665 8.27999 15.6825 8.27999H13.1226C13.5066 8.85599 13.7626 9.49598 13.7626 10.2C13.7626 11.032 13.4426 11.864 12.8026 12.44C12.2266 13.08 11.3946 13.4 10.5626 13.4H10.1786L12.9306 16.1519C13.1866 16.4079 13.1866 16.7919 12.9306 17.0479C12.8026 17.1759 12.6746 17.2399 12.4826 17.2399Z" fill="#727787"/>
<path d="M12.0346 17.0479L-3.05038 32.1329L-3.05038 32.1329L12.0346 17.0479ZM8.19459 13.208L23.2795 -1.87699L23.2795 -1.87699L8.19459 13.208ZM8.06659 12.504L27.1477 22.0445L28.195 19.9499L28.763 17.6781L8.06659 12.504ZM11.9066 11.544L-1.7507 -4.84475L-3.24058 -3.60318L-4.48215 -2.1133L11.9066 11.544ZM11.9066 8.85599L-4.48215 22.5133L-3.24058 24.0031L-1.7507 25.2447L11.9066 8.85599ZM13.1226 8.27999V-13.0533H-26.7391L-4.62785 20.1136L13.1226 8.27999ZM12.8026 12.44L-1.46869 -3.41698L-2.30326 -2.66586L-3.05438 -1.83129L12.8026 12.44ZM10.1786 13.4V-7.93338H-41.3247L-4.90637 28.4849L10.1786 13.4ZM12.9306 16.1519L28.0155 1.06699V1.06699L12.9306 16.1519ZM12.9306 17.0479L-2.15439 1.96298L12.9306 17.0479ZM12.4826 -4.09341C14.8758 -4.09341 17.824 -3.66933 20.8988 -2.30273C23.881 -0.977316 25.9241 0.767585 27.1195 1.96298L-3.05038 32.1329C-1.72698 33.4563 0.444112 35.2972 3.5703 36.6866C6.78916 38.1172 9.8973 38.5733 12.4826 38.5733V-4.09341ZM27.1195 1.96299L23.2795 -1.87699L-6.89035 28.2929L-3.05038 32.1329L27.1195 1.96299ZM23.2795 -1.87699C25.6858 0.529317 28.0049 4.0723 28.9296 8.69614C29.8871 13.4834 29.0858 18.1683 27.1477 22.0445L-11.0145 2.9634C-15.8071 12.5486 -12.6472 22.5361 -6.89035 28.2929L23.2795 -1.87699ZM28.763 17.6781C25.5503 30.5287 13.8834 33.4533 8.64259 33.4533V-9.21337C2.88975 -9.21337 -9.28912 -6.03278 -12.6298 7.32987L28.763 17.6781ZM8.64259 33.4533H10.5626V-9.21337H8.64259V33.4533ZM10.5626 33.4533C15.9013 33.4533 23.0485 31.4974 28.2953 25.2012L-4.48215 -2.1133C0.124651 -7.64147 6.24785 -9.21337 10.5626 -9.21337V33.4533ZM25.5638 27.9327C31.86 22.6859 33.8159 15.5387 33.8159 10.2H-8.85077C-8.85077 5.88525 -7.27887 -0.237948 -1.7507 -4.84475L25.5638 27.9327ZM33.8159 10.2C33.8159 4.86125 31.86 -2.28594 25.5638 -7.53273L-1.7507 25.2447C-7.27886 20.6379 -8.85077 14.5147 -8.85077 10.2H33.8159ZM28.2953 -4.80128C23.0485 -11.0974 15.9013 -13.0533 10.5626 -13.0533V29.6133C6.24784 29.6133 0.124647 28.0414 -4.48215 22.5133L28.2953 -4.80128ZM10.5626 -13.0533H8.64259V29.6133H10.5626V-13.0533ZM8.64259 -13.0533C13.2985 -13.0533 18.8362 -11.4082 23.2635 -6.98095C27.6908 -2.55366 29.3359 2.98404 29.3359 7.64H-13.3307C-13.3307 12.6799 -11.5576 18.5376 -6.90635 23.1889C-2.25506 27.8402 3.60264 29.6133 8.64259 29.6133V-13.0533ZM29.3359 7.64C29.3359 12.2959 27.6908 17.8337 23.2635 22.2609C18.8362 26.6882 13.2985 28.3333 8.64259 28.3333V-14.3333C3.60264 -14.3333 -2.25506 -12.5602 -6.90635 -7.90895C-11.5576 -3.25766 -13.3307 2.60005 -13.3307 7.64H29.3359ZM8.64259 28.3333H15.6825V-14.3333H8.64259V28.3333ZM15.6825 28.3333C11.0266 28.3333 5.48888 26.6882 1.06159 22.2609C-3.3657 17.8337 -5.0108 12.2959 -5.0108 7.64H37.6559C37.6559 2.60004 35.8828 -3.25766 31.2315 -7.90895C26.5802 -12.5602 20.7225 -14.3333 15.6825 -14.3333V28.3333ZM-5.0108 7.64C-5.0108 2.98404 -3.3657 -2.55366 1.06159 -6.98095C5.48888 -11.4082 11.0266 -13.0533 15.6825 -13.0533V29.6133C20.7225 29.6133 26.5802 27.8402 31.2315 23.1889C35.8828 18.5376 37.6559 12.6799 37.6559 7.64H-5.0108ZM15.6825 -13.0533H13.1226V29.6133H15.6825V-13.0533ZM-4.62785 20.1136C-5.82725 18.3145 -7.57078 14.8862 -7.57078 10.2H35.0959C35.0959 4.10575 32.8404 -0.602518 30.873 -3.55361L-4.62785 20.1136ZM-7.57078 10.2C-7.57078 5.75817 -5.86873 0.543061 -1.46869 -3.41698L27.0738 28.2969C32.7538 23.1849 35.0959 16.3058 35.0959 10.2H-7.57078ZM-3.05438 -1.83129C0.905664 -6.23134 6.12078 -7.93338 10.5626 -7.93338V34.7333C16.6684 34.7333 23.5475 32.3913 28.6595 26.7112L-3.05438 -1.83129ZM10.5626 -7.93338H10.1786V34.7333H10.5626V-7.93338ZM-4.90637 28.4849L-2.15438 31.2369L28.0155 1.06699L25.2635 -1.68499L-4.90637 28.4849ZM-2.15439 31.2369C-10.2296 23.1617 -10.2296 10.0382 -2.15439 1.96298L28.0155 32.1329C36.6027 23.5457 36.6027 9.65417 28.0155 1.06699L-2.15439 31.2369ZM-2.15439 1.96298C-0.958986 0.767585 1.08411 -0.977316 4.0663 -2.30273C7.14116 -3.66933 10.0893 -4.09341 12.4826 -4.09341V38.5733C15.0678 38.5733 18.176 38.1172 21.3948 36.6866C24.521 35.2972 26.6921 33.4563 28.0155 32.1329L-2.15439 1.96298Z" fill="#727787" mask="url(#path-2-inside-1_7873_22736)"/>
<path d="M8.64293 10.84C8.25893 10.84 8.00293 10.5841 8.00293 10.2001C8.00293 9.81606 8.25893 9.56006 8.64293 9.56006H15.6829C16.0669 9.56006 16.3229 9.81606 16.3229 10.2001C16.3229 10.5841 16.0669 10.84 15.6829 10.84H8.64293Z" fill="#727787" stroke="#727787" stroke-width="21.3333"/>
</svg>
