<svg width="24" height="24" viewBox="0 0 24 24" fill="none"
    xmlns="http://www.w3.org/2000/svg">
    <path d="M18.5 12C18.5 15.5899 15.5899 18.5 12 18.5C8.41015 18.5 5.5 15.5899 5.5 12C5.5 8.41015 8.41015 5.5 12 5.5C15.5899 5.5 18.5 8.41015 18.5 12Z" fill="#7B68EE" stroke="#7B68EE"/>
    <path d="M4.50355 18.7936L4.15 18.44L4.50355 18.7936L4.63355 18.6636C4.82829 18.4688 5.14171 18.4688 5.33645 18.6636C5.53118 18.8583 5.53118 19.1717 5.33645 19.3664L5.69 19.72L5.33645 19.3664L5.20645 19.4964C5.11367 19.5892 4.98235 19.64 4.86 19.64C4.7343 19.64 4.6083 19.5936 4.49918 19.492C4.30883 19.297 4.31028 18.9868 4.50355 18.7936ZM4.5164 5.21977L4.5101 5.21299L4.50355 5.20645C4.30882 5.01171 4.30882 4.69829 4.50355 4.50355C4.69829 4.30882 5.01171 4.30882 5.20645 4.50355L5.33645 4.63355C5.53118 4.82829 5.53118 5.14171 5.33645 5.33645L5.33633 5.33633L5.3275 5.34563C5.23719 5.44069 5.11082 5.49 4.99 5.49C4.86622 5.49 4.74217 5.445 4.63421 5.34665L4.5164 5.21977ZM12 22.46C11.699 22.46 11.5 22.2475 11.5 22V21.92C11.5 21.6461 11.7261 21.42 12 21.42C12.2739 21.42 12.5 21.6461 12.5 21.92C12.5 22.2195 12.2489 22.46 12 22.46ZM19.14 19.64C19.014 19.64 18.8877 19.5934 18.7784 19.4913L18.6536 19.3664C18.4588 19.1717 18.4588 18.8583 18.6536 18.6636C18.8483 18.4688 19.1617 18.4688 19.3564 18.6636L19.4864 18.7936C19.6812 18.9883 19.6812 19.3017 19.4864 19.4964C19.3918 19.5911 19.2697 19.64 19.14 19.64ZM22 12.5H21.92C21.6461 12.5 21.42 12.2739 21.42 12C21.42 11.7261 21.6461 11.5 21.92 11.5C22.2195 11.5 22.46 11.7511 22.46 12C22.46 12.301 22.2475 12.5 22 12.5ZM2.08 12.5H2C1.72614 12.5 1.5 12.2739 1.5 12C1.5 11.7261 1.72614 11.5 2 11.5C2.2995 11.5 2.54 11.7511 2.54 12C2.54 12.301 2.3275 12.5 2.08 12.5ZM19.01 5.49C18.8843 5.49 18.7583 5.44358 18.6492 5.342C18.4588 5.14697 18.4603 4.83682 18.6536 4.64355L18.7836 4.51355L18.43 4.16L18.7836 4.51355C18.9783 4.31882 19.2917 4.31882 19.4864 4.51355C19.6812 4.70829 19.6812 5.02171 19.4864 5.21645L19.3564 5.34644C19.2618 5.44108 19.1397 5.49 19.01 5.49ZM12 2.54C11.699 2.54 11.5 2.3275 11.5 2.08V2C11.5 1.72614 11.7261 1.5 12 1.5C12.2739 1.5 12.5 1.72614 12.5 2C12.5 2.2995 12.2489 2.54 12 2.54Z" fill="#7B68EE" stroke="#7B68EE"/>
</svg>
