<svg width="54" height="54" viewBox="0 0 54 54" fill="none" xmlns="http://www.w3.org/2000/svg">
<circle cx="27" cy="27" r="27" fill="white"/>
<g clip-path="url(#clip0_7873_1373)">
<path d="M38.5625 15.7567H32.1161C31.5237 15.7574 30.9557 15.993 30.5369 16.4119C30.118 16.8307 29.8824 17.3987 29.8817 17.9911V20.5781H26.1719V17.9375C26.1712 17.3451 25.9356 16.7772 25.5167 16.3583C25.0978 15.9394 24.5299 15.7038 23.9375 15.7031H17.4375C16.8451 15.7038 16.2772 15.9394 15.8583 16.3583C15.4394 16.7772 15.2038 17.3451 15.2031 17.9375V24.4375C15.2038 25.0299 15.4394 25.5978 15.8583 26.0167C16.2772 26.4356 16.8451 26.6712 17.4375 26.6719H23.9375C24.5299 26.6712 25.0978 26.4356 25.5167 26.0167C25.9356 25.5978 26.1712 25.0299 26.1719 24.4375V21.7969H27.3906V26.0619C27.3906 26.2235 27.4548 26.3785 27.5691 26.4928C27.6834 26.6071 27.8384 26.6713 28 26.6713C28.1616 26.6713 28.3166 26.6071 28.4309 26.4928C28.5452 26.3785 28.6094 26.2235 28.6094 26.0619V21.7969H29.8817V24.4375C29.8824 25.0299 30.118 25.5978 30.5369 26.0167C30.9557 26.4356 31.5237 26.6712 32.1161 26.6719H38.5625C39.1549 26.6712 39.7228 26.4356 40.1417 26.0167C40.5606 25.5978 40.7962 25.0299 40.7969 24.4375V17.9911C40.7962 17.3987 40.5606 16.8307 40.1417 16.4119C39.7228 15.993 39.1549 15.7574 38.5625 15.7567ZM24.9531 24.4375C24.9528 24.7068 24.8457 24.9649 24.6553 25.1553C24.4649 25.3457 24.2068 25.4528 23.9375 25.4531H17.4375C17.1682 25.4528 16.9101 25.3457 16.7197 25.1553C16.5293 24.9649 16.4222 24.7068 16.4219 24.4375V17.9375C16.4222 17.6682 16.5293 17.4101 16.7197 17.2197C16.9101 17.0293 17.1682 16.9222 17.4375 16.9219H23.9375C24.2068 16.9222 24.4649 17.0293 24.6553 17.2197C24.8457 17.4101 24.9528 17.6682 24.9531 17.9375V24.4375ZM39.5781 24.4375C39.5778 24.7068 39.4707 24.9649 39.2803 25.1553C39.0899 25.3457 38.8318 25.4528 38.5625 25.4531H32.1161C31.8468 25.4528 31.5887 25.3457 31.3983 25.1553C31.2079 24.9649 31.1008 24.7068 31.1004 24.4375V17.9911C31.1008 17.7218 31.2079 17.4637 31.3983 17.2733C31.5887 17.0829 31.8468 16.9758 32.1161 16.9754H38.5625C38.8318 16.9758 39.0899 17.0829 39.2803 17.2733C39.4707 17.4637 39.5778 17.7218 39.5781 17.9911V24.4375Z" fill="#111111"/>
<path d="M22.2258 21.4831C22.5418 21.1191 22.7167 20.6539 22.7188 20.1719C22.7188 19.6332 22.5047 19.1165 22.1238 18.7356C21.7429 18.3546 21.2262 18.1406 20.6875 18.1406C20.1488 18.1406 19.6321 18.3546 19.2512 18.7356C18.8703 19.1165 18.6562 19.6332 18.6562 20.1719C18.6583 20.6539 18.8332 21.1191 19.1492 21.4831C18.8085 21.7269 18.5308 22.0483 18.3391 22.4208C18.1474 22.7933 18.0473 23.2061 18.0469 23.625C18.0469 23.7866 18.1111 23.9416 18.2254 24.0559C18.3396 24.1702 18.4946 24.2344 18.6562 24.2344C18.8179 24.2344 18.9729 24.1702 19.0871 24.0559C19.2014 23.9416 19.2656 23.7866 19.2656 23.625C19.2656 23.2479 19.4154 22.8862 19.6821 22.6196C19.9487 22.3529 20.3104 22.2031 20.6875 22.2031C21.0646 22.2031 21.4263 22.3529 21.6929 22.6196C21.9596 22.8862 22.1094 23.2479 22.1094 23.625C22.1094 23.7866 22.1736 23.9416 22.2879 24.0559C22.4021 24.1702 22.5571 24.2344 22.7188 24.2344C22.8804 24.2344 23.0354 24.1702 23.1496 24.0559C23.2639 23.9416 23.3281 23.7866 23.3281 23.625C23.3277 23.2061 23.2276 22.7933 23.0359 22.4208C22.8442 22.0483 22.5665 21.7269 22.2258 21.4831ZM19.875 20.1719C19.875 20.0112 19.9227 19.8541 20.0119 19.7205C20.1012 19.5869 20.2281 19.4827 20.3766 19.4212C20.525 19.3597 20.6884 19.3436 20.846 19.375C21.0036 19.4063 21.1484 19.4837 21.262 19.5974C21.3757 19.711 21.453 19.8558 21.4844 20.0134C21.5157 20.171 21.4996 20.3343 21.4382 20.4828C21.3767 20.6313 21.2725 20.7582 21.1389 20.8474C21.0053 20.9367 20.8482 20.9844 20.6875 20.9844C20.4721 20.9842 20.2655 20.8985 20.1132 20.7462C19.9609 20.5938 19.8752 20.3873 19.875 20.1719Z" fill="#111111"/>
<path d="M36.8508 21.4831C37.1668 21.1191 37.3417 20.6539 37.3438 20.1719C37.3438 19.6332 37.1297 19.1165 36.7488 18.7356C36.3679 18.3546 35.8512 18.1406 35.3125 18.1406C34.7738 18.1406 34.2571 18.3546 33.8762 18.7356C33.4953 19.1165 33.2812 19.6332 33.2812 20.1719C33.2833 20.6539 33.4582 21.1191 33.7742 21.4831C33.4335 21.7269 33.1558 22.0483 32.9641 22.4208C32.7724 22.7933 32.6723 23.2061 32.6719 23.625C32.6719 23.7866 32.7361 23.9416 32.8504 24.0559C32.9646 24.1702 33.1196 24.2344 33.2812 24.2344C33.4429 24.2344 33.5979 24.1702 33.7121 24.0559C33.8264 23.9416 33.8906 23.7866 33.8906 23.625C33.8906 23.2479 34.0404 22.8862 34.3071 22.6196C34.5737 22.3529 34.9354 22.2031 35.3125 22.2031C35.6896 22.2031 36.0513 22.3529 36.3179 22.6196C36.5846 22.8862 36.7344 23.2479 36.7344 23.625C36.7344 23.7866 36.7986 23.9416 36.9129 24.0559C37.0271 24.1702 37.1821 24.2344 37.3438 24.2344C37.5054 24.2344 37.6604 24.1702 37.7746 24.0559C37.8889 23.9416 37.9531 23.7866 37.9531 23.625C37.9527 23.2061 37.8526 22.7933 37.6609 22.4208C37.4692 22.0483 37.1915 21.7269 36.8508 21.4831ZM34.5 20.1719C34.5 20.0112 34.5477 19.8541 34.6369 19.7205C34.7262 19.5869 34.8531 19.4827 35.0016 19.4212C35.15 19.3597 35.3134 19.3436 35.471 19.375C35.6286 19.4063 35.7734 19.4837 35.887 19.5974C36.0007 19.711 36.078 19.8558 36.1094 20.0134C36.1407 20.171 36.1246 20.3343 36.0632 20.4828C36.0017 20.6313 35.8975 20.7582 35.7639 20.8474C35.6303 20.9367 35.4732 20.9844 35.3125 20.9844C35.0971 20.9842 34.8905 20.8985 34.7382 20.7462C34.5859 20.5938 34.5002 20.3873 34.5 20.1719Z" fill="#111111"/>
<path d="M28 34.5938C28.8414 34.5938 29.5234 33.9117 29.5234 33.0703C29.5234 32.2289 28.8414 31.5469 28 31.5469C27.1586 31.5469 26.4766 32.2289 26.4766 33.0703C26.4766 33.9117 27.1586 34.5938 28 34.5938Z" fill="#F271E5"/>
<path d="M32.4688 27.8906H23.5312C22.9389 27.8913 22.3709 28.1269 21.952 28.5458C21.5332 28.9647 21.2975 29.5326 21.2969 30.125V39.0625C21.2976 39.6549 21.5332 40.2228 21.9521 40.6417C22.371 41.0605 22.9389 41.2962 23.5312 41.2969H32.4688C33.0611 41.2962 33.629 41.0605 34.0479 40.6417C34.4668 40.2228 34.7024 39.6549 34.7031 39.0625V30.125C34.7025 29.5326 34.4668 28.9647 34.048 28.5458C33.6291 28.1269 33.0611 27.8913 32.4688 27.8906ZM31.0469 38.8594C30.8853 38.8594 30.7303 38.7952 30.616 38.6809C30.5017 38.5666 30.4375 38.4116 30.4375 38.25C30.4375 37.6035 30.1807 36.9835 29.7236 36.5264C29.2665 36.0693 28.6465 35.8125 28 35.8125C27.3535 35.8125 26.7335 36.0693 26.2764 36.5264C25.8193 36.9835 25.5625 37.6035 25.5625 38.25C25.5625 38.4116 25.4983 38.5666 25.384 38.6809C25.2697 38.7952 25.1147 38.8594 24.9531 38.8594C24.7915 38.8594 24.6365 38.7952 24.5222 38.6809C24.408 38.5666 24.3438 38.4116 24.3438 38.25C24.3445 37.6116 24.5125 36.9846 24.8309 36.4313C25.1494 35.878 25.6072 35.4178 26.1587 35.0965C25.7483 34.7246 25.4601 34.2371 25.3321 33.6983C25.2041 33.1594 25.2422 32.5944 25.4415 32.0777C25.6408 31.5609 25.9919 31.1166 26.4486 30.8033C26.9053 30.4899 27.4461 30.3222 28 30.3222C28.5539 30.3222 29.0947 30.4899 29.5514 30.8033C30.0081 31.1166 30.3592 31.5609 30.5585 32.0777C30.7578 32.5944 30.7959 33.1594 30.6679 33.6983C30.5399 34.2371 30.2517 34.7246 29.8413 35.0965C30.3928 35.4178 30.8506 35.878 31.1691 36.4313C31.4875 36.9846 31.6555 37.6116 31.6562 38.25C31.6562 38.4116 31.592 38.5666 31.4778 38.6809C31.3635 38.7952 31.2085 38.8594 31.0469 38.8594Z" fill="#F271E5"/>
</g>
<defs>
<clipPath id="clip0_7873_1373">
<rect width="26" height="26" fill="white" transform="translate(15 15.5)"/>
</clipPath>
</defs>
</svg>
