<svg width="54" height="54" viewBox="0 0 54 54" fill="none" xmlns="http://www.w3.org/2000/svg">
<circle cx="27" cy="27" r="27" fill="white"/>
<g clip-path="url(#clip0_7873_1362)">
<path d="M33.5 33.7031C34.5096 33.7031 35.3281 32.8846 35.3281 31.875C35.3281 30.8654 34.5096 30.0469 33.5 30.0469C32.4904 30.0469 31.6719 30.8654 31.6719 31.875C31.6719 32.8846 32.4904 33.7031 33.5 33.7031Z" fill="#6896EE"/>
<path d="M33.5 27.2031C32.2546 27.2031 31.0372 27.5724 30.0016 28.2643C28.9661 28.9562 28.159 29.9397 27.6824 31.0903C27.2059 32.2409 27.0812 33.507 27.3241 34.7285C27.5671 35.9499 28.1668 37.0719 29.0474 37.9526C29.9281 38.8332 31.0501 39.4329 32.2715 39.6759C33.493 39.9188 34.7591 39.7941 35.9097 39.3176C37.0603 38.841 38.0438 38.0339 38.7357 36.9984C39.4276 35.9628 39.7969 34.7454 39.7969 33.5C39.795 31.8305 39.131 30.23 37.9505 29.0495C36.77 27.869 35.1695 27.205 33.5 27.2031ZM36.3438 37.7656C36.2637 37.7656 36.1845 37.7499 36.1105 37.7193C36.0366 37.6886 35.9694 37.6438 35.9128 37.5872C35.8562 37.5306 35.8114 37.4634 35.7807 37.3895C35.7501 37.3155 35.7344 37.2363 35.7344 37.1562C35.7344 36.5637 35.499 35.9953 35.0799 35.5763C34.6609 35.1573 34.0926 34.9219 33.5 34.9219C32.9074 34.9219 32.3391 35.1573 31.9201 35.5763C31.501 35.9953 31.2656 36.5637 31.2656 37.1562C31.2656 37.3179 31.2014 37.4729 31.0871 37.5871C30.9729 37.7014 30.8179 37.7656 30.6563 37.7656C30.4946 37.7656 30.3396 37.7014 30.2254 37.5871C30.1111 37.4729 30.0469 37.3179 30.0469 37.1562C30.0473 36.5818 30.1911 36.0166 30.4653 35.5118C30.7394 35.007 31.1352 34.5787 31.6168 34.2656C31.1188 33.874 30.7552 33.3369 30.5766 32.729C30.3981 32.1211 30.4135 31.4727 30.6206 30.874C30.8278 30.2752 31.2165 29.756 31.7326 29.3885C32.2486 29.021 32.8664 28.8235 33.5 28.8235C34.1336 28.8235 34.7514 29.021 35.2674 29.3885C35.7835 29.756 36.1722 30.2752 36.3794 30.874C36.5865 31.4727 36.6019 32.1211 36.4234 32.729C36.2448 33.3369 35.8812 33.874 35.3832 34.2656C35.8648 34.5787 36.2606 35.007 36.5347 35.5118C36.8089 36.0166 36.9527 36.5818 36.9531 37.1562C36.9531 37.2363 36.9374 37.3155 36.9068 37.3895C36.8761 37.4634 36.8313 37.5306 36.7747 37.5872C36.7181 37.6438 36.6509 37.6886 36.577 37.7193C36.503 37.7499 36.4238 37.7656 36.3438 37.7656Z" fill="#6896EE"/>
<path d="M24.7328 22.0248C25.122 21.664 25.3935 21.1942 25.5117 20.6768C25.63 20.1594 25.5896 19.6183 25.3958 19.1242C25.202 18.63 24.8638 18.2058 24.4252 17.9067C23.9867 17.6077 23.4683 17.4478 22.9375 17.4478C22.4067 17.4478 21.8883 17.6077 21.4498 17.9067C21.0112 18.2058 20.673 18.63 20.4792 19.1242C20.2854 19.6183 20.245 20.1594 20.3633 20.6768C20.4815 21.1942 20.753 21.664 21.1422 22.0248C20.6367 22.3323 20.2186 22.7645 19.9283 23.2801C19.638 23.7957 19.4851 24.3773 19.4844 24.969C19.4844 25.1306 19.5486 25.2856 19.6629 25.3999C19.7771 25.5141 19.9321 25.5783 20.0938 25.5783C20.2554 25.5783 20.4104 25.5141 20.5246 25.3999C20.6389 25.2856 20.7031 25.1306 20.7031 24.969C20.7031 24.3764 20.9385 23.8081 21.3576 23.389C21.7766 22.97 22.3449 22.7346 22.9375 22.7346C23.5301 22.7346 24.0984 22.97 24.5174 23.389C24.9365 23.8081 25.1719 24.3764 25.1719 24.969C25.1719 25.1306 25.2361 25.2856 25.3504 25.3999C25.4646 25.5141 25.6196 25.5783 25.7812 25.5783C25.9429 25.5783 26.0979 25.5141 26.2121 25.3999C26.3264 25.2856 26.3906 25.1306 26.3906 24.969C26.3899 24.3773 26.237 23.7957 25.9467 23.2801C25.6564 22.7645 25.2383 22.3323 24.7328 22.0248ZM21.5156 20.094C21.5156 19.8127 21.599 19.5378 21.7553 19.304C21.9115 19.0702 22.1336 18.8879 22.3934 18.7803C22.6532 18.6727 22.9391 18.6445 23.2149 18.6994C23.4907 18.7543 23.7441 18.8897 23.9429 19.0886C24.1418 19.2874 24.2772 19.5408 24.3321 19.8166C24.3869 20.0924 24.3588 20.3783 24.2511 20.6381C24.1435 20.8979 23.9613 21.12 23.7275 21.2762C23.4936 21.4325 23.2187 21.5158 22.9375 21.5158C22.5605 21.5154 22.1991 21.3654 21.9326 21.0989C21.666 20.8323 21.5161 20.4709 21.5156 20.094Z" fill="#111111"/>
<path d="M19.4844 34.3127C19.4844 34.4743 19.5486 34.6293 19.6629 34.7436C19.7771 34.8579 19.9321 34.9221 20.0938 34.9221C20.2554 34.9221 20.4104 34.8579 20.5246 34.7436C20.6389 34.6293 20.7031 34.4743 20.7031 34.3127C20.7031 33.7201 20.9385 33.1518 21.3576 32.7328C21.7766 32.3138 22.3449 32.0783 22.9375 32.0783C23.5301 32.0783 24.0984 32.3138 24.5174 32.7328C24.9365 33.1518 25.1719 33.7201 25.1719 34.3127C25.1719 34.4743 25.2361 34.6293 25.3504 34.7436C25.4646 34.8579 25.6196 34.9221 25.7812 34.9221C25.9429 34.9221 26.0979 34.8579 26.2121 34.7436C26.3264 34.6293 26.3906 34.4743 26.3906 34.3127C26.3899 33.721 26.237 33.1394 25.9467 32.6239C25.6564 32.1083 25.2383 31.676 24.7328 31.3686C25.122 31.0077 25.3935 30.538 25.5117 30.0205C25.63 29.5031 25.5896 28.962 25.3958 28.4679C25.202 27.9738 24.8638 27.5495 24.4252 27.2505C23.9867 26.9515 23.4683 26.7915 22.9375 26.7915C22.4067 26.7915 21.8883 26.9515 21.4498 27.2505C21.0112 27.5495 20.673 27.9738 20.4792 28.4679C20.2854 28.962 20.245 29.5031 20.3633 30.0205C20.4815 30.538 20.753 31.0077 21.1422 31.3686C20.6367 31.676 20.2186 32.1083 19.9283 32.6239C19.638 33.1394 19.4851 33.721 19.4844 34.3127ZM21.5156 29.4377C21.5156 29.1565 21.599 28.8816 21.7553 28.6478C21.9115 28.4139 22.1336 28.2317 22.3934 28.1241C22.6532 28.0165 22.9391 27.9883 23.2149 28.0432C23.4907 28.098 23.7441 28.2334 23.9429 28.4323C24.1418 28.6312 24.2772 28.8845 24.3321 29.1603C24.3869 29.4361 24.3588 29.722 24.2511 29.9818C24.1435 30.2417 23.9613 30.4637 23.7275 30.62C23.4936 30.7762 23.2187 30.8596 22.9375 30.8596C22.5605 30.8591 22.1991 30.7092 21.9326 30.4426C21.666 30.1761 21.5161 29.8147 21.5156 29.4377Z" fill="#111111"/>
<path d="M27.6094 24.969C27.6094 25.1306 27.6736 25.2856 27.7879 25.3999C27.9021 25.5141 28.0571 25.5783 28.2188 25.5783C28.3804 25.5783 28.5354 25.5141 28.6496 25.3999C28.7639 25.2856 28.8281 25.1306 28.8281 24.969C28.8281 24.3764 29.0635 23.808 29.4826 23.389C29.9016 22.97 30.4699 22.7346 31.0625 22.7346C31.6551 22.7346 32.2234 22.97 32.6424 23.389C33.0615 23.808 33.2969 24.3764 33.2969 24.969C33.2969 25.1306 33.3611 25.2856 33.4754 25.3999C33.5896 25.5141 33.7446 25.5783 33.9062 25.5783C34.0679 25.5783 34.2229 25.5141 34.3371 25.3999C34.4514 25.2856 34.5156 25.1306 34.5156 24.969C34.5149 24.3773 34.362 23.7957 34.0717 23.2801C33.7813 22.7646 33.3633 22.3323 32.8577 22.0249C33.247 21.664 33.5185 21.1942 33.6367 20.6768C33.755 20.1594 33.7146 19.6183 33.5208 19.1242C33.327 18.6301 32.9888 18.2058 32.5503 17.9068C32.1117 17.6077 31.5933 17.4478 31.0625 17.4478C30.5317 17.4478 30.0133 17.6077 29.5747 17.9068C29.1362 18.2058 28.798 18.6301 28.6042 19.1242C28.4104 19.6183 28.37 20.1594 28.4883 20.6768C28.6065 21.1942 28.878 21.664 29.2673 22.0249C28.7617 22.3323 28.3437 22.7646 28.0533 23.2801C27.763 23.7957 27.6101 24.3773 27.6094 24.969ZM29.6406 20.094C29.6406 19.8127 29.724 19.5378 29.8803 19.304C30.0365 19.0702 30.2586 18.8879 30.5184 18.7803C30.7782 18.6727 31.0641 18.6445 31.3399 18.6994C31.6157 18.7543 31.8691 18.8897 32.0679 19.0885C32.2668 19.2874 32.4022 19.5408 32.4571 19.8166C32.5119 20.0924 32.4838 20.3783 32.3761 20.6381C32.2685 20.8979 32.0863 21.12 31.8525 21.2762C31.6186 21.4324 31.3437 21.5158 31.0625 21.5158C30.6855 21.5154 30.3241 21.3654 30.0576 21.0989C29.791 20.8323 29.6411 20.4709 29.6406 20.094Z" fill="#111111"/>
<path d="M27 14.2031C23.6061 14.2031 20.3511 15.5514 17.9512 17.9512C15.5514 20.3511 14.2031 23.6061 14.2031 27C14.2031 30.3939 15.5514 33.6489 17.9512 36.0488C20.3511 38.4486 23.6061 39.7969 27 39.7969C27.241 39.7969 27.4796 39.7885 27.7177 39.7753C27.7976 39.7708 27.8758 39.7506 27.9479 39.7159C28.02 39.6812 28.0846 39.6326 28.1379 39.5729C28.1912 39.5133 28.2323 39.4437 28.2587 39.3682C28.2851 39.2926 28.2964 39.2126 28.2919 39.1327C28.2875 39.0529 28.2673 38.9746 28.2326 38.9025C28.1979 38.8304 28.1493 38.7659 28.0896 38.7125C28.03 38.6592 27.9604 38.6182 27.8848 38.5917C27.8093 38.5653 27.7293 38.554 27.6494 38.5585C27.4344 38.5706 27.218 38.5781 27 38.5781C24.7101 38.5781 22.4716 37.8991 20.5675 36.6269C18.6635 35.3546 17.1795 33.5464 16.3032 31.4308C15.4269 29.3151 15.1976 26.9872 15.6443 24.7412C16.0911 22.4953 17.1938 20.4323 18.813 18.813C20.4323 17.1938 22.4953 16.0911 24.7412 15.6443C26.9872 15.1976 29.3151 15.4269 31.4308 16.3032C33.5464 17.1795 35.3546 18.6635 36.6269 20.5675C37.8991 22.4716 38.5781 24.7101 38.5781 27C38.5781 27.218 38.5706 27.4344 38.5583 27.6494C38.5492 27.8108 38.6047 27.9692 38.7124 28.0898C38.8201 28.2103 38.9713 28.2831 39.1327 28.2922C39.2942 28.3012 39.4525 28.2458 39.5731 28.138C39.6936 28.0303 39.7664 27.8791 39.7755 27.7177C39.7885 27.48 39.7969 27.241 39.7969 27C39.793 23.6072 38.4436 20.3545 36.0445 17.9555C33.6455 15.5564 30.3928 14.207 27 14.2031Z" fill="#111111"/>
</g>
<defs>
<clipPath id="clip0_7873_1362">
<rect width="26" height="26" fill="white" transform="translate(14 14)"/>
</clipPath>
</defs>
</svg>
